HIERARCHY
ROOT root
{
	OFFSET 0.000000 0.000000 0.000000
	CHANNELS 6 Xposition Yposition Zposition Zrotation Yrotation Xrotation
	JOINT lhip
	{
		OFFSET 0.058581 -0.082280 -0.017664
		CHANNELS 3 Zrotation Yrotation Xrotation
		JOINT lknee
		{
			OFFSET 0.043451 -0.386469 0.008037
			CHANNELS 3 Zrotation Yrotation Xrotation
			JOINT lankle
			{
				OFFSET -0.014790 -0.426874 -0.037428
				CHANNELS 3 Zrotation Yrotation Xrotation
				JOINT ltoe
				{
					OFFSET 0.041054 -0.060286 0.122042
					CHANNELS 3 Zrotation Yrotation Xrotation
					End Site
					{
						OFFSET 0.000000 0.000000 0.000000
					}
				}
			}
		}
	}
	JOINT rhip
	{
		OFFSET -0.060310 -0.090513 -0.013543
		CHANNELS 3 Zrotation Yrotation Xrotation
		JOINT rknee
		{
			OFFSET -0.043257 -0.383688 -0.004843
			CHANNELS 3 Zrotation Yrotation Xrotation
			JOINT rankle
			{
				OFFSET 0.019056 -0.420046 -0.034562
				CHANNELS 3 Zrotation Yrotation Xrotation
				JOINT rtoe
				{
					OFFSET -0.034840 -0.062106 0.130323
					CHANNELS 3 Zrotation Yrotation Xrotation
					End Site
					{
						OFFSET 0.000000 0.000000 0.000000
					}
				}
			}
		}
	}
	JOINT lowerback
	{
		OFFSET 0.004439 0.124404 -0.038385
		CHANNELS 3 Zrotation Yrotation Xrotation
		JOINT upperback
		{
			OFFSET 0.004488 0.137956 0.026820
			CHANNELS 3 Zrotation Yrotation Xrotation
			JOINT chest
			{
				OFFSET -0.002265 0.056032 0.002855
				CHANNELS 3 Zrotation Yrotation Xrotation
				JOINT lowerneck
				{
					OFFSET -0.013390 0.211636 -0.033468
					CHANNELS 3 Zrotation Yrotation Xrotation
					JOINT upperneck
					{
						OFFSET 0.010113 0.088937 0.050410
						CHANNELS 3 Zrotation Yrotation Xrotation
						End Site
						{
							OFFSET 0.000000 0.000000 0.000000
						}
					}
				}
				JOINT lclavicle
				{
					OFFSET 0.071702 0.114000 -0.018898
					CHANNELS 3 Zrotation Yrotation Xrotation
					JOINT lshoulder
					{
						OFFSET 0.122921 0.045205 -0.019046
						CHANNELS 3 Zrotation Yrotation Xrotation
						JOINT lelbow
						{
							OFFSET 0.255332 -0.015649 -0.022946
							CHANNELS 3 Zrotation Yrotation Xrotation
							JOINT lwrist
							{
								OFFSET 0.265709 0.012698 -0.007375
								CHANNELS 3 Zrotation Yrotation Xrotation
								End Site
								{
									OFFSET 0.000000 0.000000 0.000000
								}
							}
						}
					}
				}
				JOINT rclavicle
				{
					OFFSET -0.082954 0.112472 -0.023707
					CHANNELS 3 Zrotation Yrotation Xrotation
					JOINT rshoulder
					{
						OFFSET -0.113228 0.046853 -0.008472
						CHANNELS 3 Zrotation Yrotation Xrotation
						JOINT relbow
						{
							OFFSET -0.260127 -0.014369 -0.031269
							CHANNELS 3 Zrotation Yrotation Xrotation
							JOINT rwrist
							{
								OFFSET -0.269108 0.006794 -0.006027
								CHANNELS 3 Zrotation Yrotation Xrotation
								End Site
								{
									OFFSET 0.000000 0.000000 0.000000
								}
							}
						}
					}
				}
			}
		}
	}
}
MOTION
Frames: 17
Frame Time: 0.033333
0.200102 -0.058432 0.978493 134.199417 5.426028 87.174506 31.180317 16.207873 9.546073 4.086462 15.074515 25.000003 -28.251237 5.590102 18.896253 0.000000 -0.000000 0.000000 8.562832 13.301950 -18.964971 0.961219 5.477404 29.615986 4.846357 14.997665 -6.795026 0.000000 -0.000000 0.000000 -15.090358 -11.170735 14.058267 -2.955381 -22.959319 8.569991 -1.167306 -8.352330 -18.091577 -13.963980 55.864726 4.263933 0.278701 29.558323 2.774339 16.829171 -62.665426 -28.553214 -25.812618 -70.957242 -2.041790 10.164147 -25.687909 -1.949524 6.623552 -27.196550 2.390802 2.090350 22.764477 -8.432187 42.193212 29.517042 0.207405 -110.235168 40.163514 -72.197581 -50.672722 12.597311 -3.481184 
0.205890 -0.057905 0.980197 132.786399 4.882349 87.298883 30.740443 16.236355 10.155546 3.950562 14.658872 24.784774 -28.618425 6.240153 20.188804 0.000000 -0.000000 0.000000 8.618748 13.697258 -18.999714 0.992514 6.471468 29.969290 5.199634 14.951507 -6.598138 0.000000 -0.000000 0.000000 -14.959563 -11.527970 13.826442 -3.375846 -22.912966 7.565759 -1.499574 -8.069942 -17.917673 -14.305957 55.629957 3.861002 0.250149 29.821864 2.149300 22.262054 -62.212665 -33.802043 -17.994922 -72.739780 -8.656147 11.102448 -25.985558 -4.914381 8.992568 -29.576102 0.806458 -1.262103 21.911258 -10.555839 38.103821 28.867658 -2.075309 -111.514953 39.566209 -72.737723 -50.314269 13.526160 -2.311749 
0.210739 -0.057973 0.981850 131.477105 4.502334 87.454573 30.489181 16.450976 10.618879 3.707790 13.907629 24.528106 -29.018320 6.940435 21.474182 0.000000 -0.000000 0.000000 8.825947 14.034979 -18.859942 1.070700 7.763308 29.877688 5.462106 14.600398 -6.292930 0.000000 -0.000000 0.000000 -14.806887 -11.521040 13.215973 -3.740932 -22.770548 7.316945 -1.760362 -8.111129 -17.650959 -14.932713 55.695000 2.950058 0.222852 30.347004 1.250087 27.195777 -61.409009 -38.208298 -9.607994 -73.504073 -15.908969 11.951016 -26.316732 -6.935546 11.742844 -31.615895 -1.691796 -4.259708 20.761212 -12.419376 35.016086 28.284651 -3.778014 -111.884957 39.391288 -72.519582 -50.549347 14.827050 -1.403639 
0.213157 -0.058275 0.983719 130.704678 4.368253 87.663205 30.257606 16.301582 10.689572 3.431722 13.132976 24.097862 -29.042693 7.646737 22.945913 0.000000 -0.000000 0.000000 8.870471 14.097878 -18.884508 1.326779 8.571934 29.584018 5.792931 14.419861 -5.897739 0.000000 -0.000000 0.000000 -14.517528 -11.697213 13.183496 -3.867936 -22.690982 6.400630 -1.797626 -8.038095 -17.341787 -14.826280 55.473771 2.916141 0.554910 30.984677 0.939991 29.389739 -61.035427 -40.174112 -3.153825 -73.539452 -21.410266 13.122914 -27.207270 -8.996358 14.176894 -32.548736 -3.379281 -6.516721 20.159873 -13.581942 32.407855 27.347105 -5.085844 -111.899649 39.490083 -72.664098 -50.575128 14.994138 -1.376219 
0.214304 -0.058630 0.985708 130.177382 4.241405 87.778010 30.159864 16.280106 10.737542 3.110153 12.614200 23.648444 -28.653162 8.093618 24.312501 0.000000 -0.000000 0.000000 8.789734 13.917885 -18.784781 1.578403 9.254400 29.116659 6.050570 14.517912 -5.251900 0.000000 -0.000000 0.000000 -14.399429 -11.684999 13.109907 -3.976510 -22.573954 6.035405 -1.837306 -8.108000 -16.906774 -14.854910 55.254488 2.707901 0.879203 31.397161 0.834498 30.577452 -60.329814 -41.251129 1.391006 -73.691546 -25.361645 13.594052 -27.777753 -9.684824 16.170226 -32.572563 -4.420050 -8.210509 19.408245 -14.481301 30.930025 26.878267 -5.816727 -111.673013 39.547073 -72.602502 -51.865121 15.362358 -1.511772 
0.213655 -0.059322 0.987277 129.991045 4.163046 88.106080 30.044136 16.332670 10.286851 2.895082 12.285494 23.502736 -28.614680 8.210700 25.385680 0.000000 -0.000000 0.000000 8.547885 13.816177 -18.913664 1.665759 9.521704 28.466629 6.448576 14.585618 -4.789805 0.000000 -0.000000 0.000000 -14.373979 -11.549126 12.886347 -3.954841 -22.535340 6.144242 -1.806312 -8.078653 -16.695311 -14.793026 55.367860 3.042507 0.672631 31.504200 0.084993 31.389434 -59.886142 -41.769962 4.443275 -73.711244 -28.055514 14.022627 -27.841992 -10.004983 16.306207 -32.532498 -4.634491 -8.845057 18.995566 -14.631785 29.633637 26.525559 -6.648202 -111.347712 39.656309 -72.457741 -51.698025 14.928492 -1.842389 
0.210629 -0.059800 0.988887 130.208906 4.156510 88.427895 29.757987 16.225988 9.723469 2.466293 11.340269 23.285991 -28.190062 7.872107 25.209714 0.000000 -0.000000 0.000000 8.144865 13.435543 -19.061021 1.798031 9.611896 27.580587 6.882858 14.709996 -4.189003 0.000000 -0.000000 0.000000 -14.136467 -11.472086 12.998605 -4.008637 -22.484426 6.033048 -1.817537 -8.119208 -16.374183 -14.845989 55.402725 3.291802 0.598187 31.980389 -0.217798 31.381501 -59.674027 -41.834027 4.663053 -73.923483 -28.276776 14.090268 -27.730139 -10.043550 16.875661 -31.649527 -4.407742 -9.300289 18.652622 -14.712472 29.759413 26.464739 -6.601807 -110.647267 39.772109 -72.330685 -52.179830 14.618266 -2.369680 
0.205509 -0.060278 0.990182 130.742715 4.215662 88.686353 29.308490 16.003686 9.138335 1.904904 10.064927 23.071408 -27.050349 7.294239 23.439199 0.000000 -0.000000 0.000000 7.691974 12.908732 -19.264419 1.902460 9.510136 26.771766 7.281613 14.739858 -3.677690 0.000000 -0.000000 0.000000 -13.832645 -11.340176 13.440196 -4.009694 -22.431207 5.913901 -1.780944 -8.133371 -15.980897 -14.828460 55.132990 3.498082 0.718565 31.960565 0.205716 31.027465 -59.789265 -41.549615 2.690541 -73.999045 -26.793354 14.159507 -27.323501 -9.385471 16.094239 -30.157352 -4.278593 -9.445845 18.702472 -14.772020 30.660325 26.374944 -6.364318 -109.716520 39.868921 -71.600161 -52.300108 13.413582 -3.650172 
0.197712 -0.060885 0.990940 131.712569 4.261526 89.047594 28.654693 15.801601 8.294211 1.536184 9.892013 23.002398 -25.869873 6.530249 20.631603 0.000000 -0.000000 0.000000 6.938383 12.266691 -19.768712 2.065346 8.983047 26.065585 7.881621 14.655511 -2.958585 0.000000 -0.000000 0.000000 -13.643619 -11.071024 14.154572 -3.774905 -22.443601 5.752873 -1.654183 -8.145855 -15.409504 -14.461981 55.020845 3.619922 0.764993 31.825268 0.777231 30.594976 -59.477089 -40.807756 -0.336156 -74.028102 -24.542242 13.947182 -27.197577 -7.935316 14.847741 -28.923304 -3.684076 -9.285711 18.697135 -14.446674 32.559618 27.120979 -5.665732 -108.646104 39.644040 -70.993274 -51.905636 13.077516 -4.159742 
0.187547 -0.061869 0.991151 133.050289 4.391863 89.544902 27.797297 15.810250 7.107158 1.219708 10.205199 23.002535 -22.842842 5.737060 16.056318 0.000000 -0.000000 0.000000 6.107943 11.755853 -20.548136 2.164981 8.230507 25.463907 8.318723 14.318601 -2.511107 0.000000 -0.000000 0.000000 -13.363813 -10.756698 15.015744 -3.427621 -22.424582 5.602960 -1.419174 -8.302102 -14.772676 -14.063517 54.734310 3.902985 0.468124 31.753560 1.028621 29.536940 -59.567006 -39.537382 -4.107971 -73.934028 -21.718481 13.345886 -26.342359 -6.612256 13.008478 -27.258130 -1.824296 -8.638613 18.931127 -14.299526 35.173108 27.756799 -4.083474 -107.179322 39.556297 -70.600256 -52.138368 11.502478 -5.472872 
0.174796 -0.063202 0.990352 134.993937 4.448593 90.204940 26.554450 15.962612 5.475239 0.757095 11.153781 22.686853 -18.251324 5.845742 10.565978 0.000000 -0.000000 0.000000 4.819583 10.947043 -21.744561 2.680154 7.371114 25.086611 8.771908 13.334887 -2.044538 0.000000 -0.000000 0.000000 -13.054410 -10.451756 16.003228 -2.784989 -22.383144 5.508985 -1.182670 -8.500703 -13.849161 -14.326164 54.049566 3.352389 0.353199 31.228001 1.780539 28.025825 -59.284440 -37.777112 -8.213350 -73.801135 -18.239794 12.419574 -25.828702 -3.977545 12.858976 -25.796215 -1.986729 -7.627996 19.300219 -13.741975 37.585515 28.940803 -2.426787 -105.532393 39.151060 -69.776207 -52.196266 9.627847 -6.770805 
0.159642 -0.064860 0.988478 137.475552 4.434942 91.126105 24.585359 15.845678 3.457871 0.616132 13.023693 21.790963 -13.899522 6.963080 5.024219 0.000000 -0.000000 0.000000 3.298981 10.032085 -23.380451 3.007857 6.006599 24.936077 9.294386 12.048048 -1.790851 0.000000 -0.000000 0.000000 -12.416696 -10.182796 16.916778 -2.147045 -22.172193 4.979814 -1.078818 -8.757508 -12.629553 -13.972400 53.218844 3.212332 0.158025 30.900596 2.790103 25.250236 -58.936418 -34.825880 -13.077390 -74.350097 -14.221233 11.637043 -24.269912 -2.729517 12.099630 -24.390453 -2.166024 -6.003726 19.534265 -12.801241 39.995619 30.243989 -0.311902 -102.971242 38.831964 -68.121504 -52.004256 8.216604 -8.221938 
0.143221 -0.066612 0.985774 140.477221 4.492975 91.901605 22.832707 16.097863 1.759363 1.121142 16.997781 20.327977 -11.573919 7.065713 0.654979 0.000000 -0.000000 0.000000 2.132155 9.124805 -24.643000 2.600292 4.554950 24.758625 9.484084 10.661933 -1.679235 0.000000 -0.000000 0.000000 -11.346868 -9.832874 18.070915 -1.393831 -21.844734 4.945869 -0.749263 -9.195189 -11.787202 -14.658238 52.027148 2.551391 0.040251 30.481872 3.542455 22.723728 -57.754429 -32.417363 -21.520297 -74.440642 -7.485839 11.296697 -23.253603 -0.807021 11.252920 -22.982626 -2.180341 -4.525292 20.055153 -11.657294 42.599540 31.489316 1.901333 -100.480174 38.632794 -66.853280 -52.048495 6.551971 -9.432068 
0.124091 -0.069223 0.982314 144.750845 4.484839 92.784735 20.932948 15.928362 -0.571313 1.298946 19.896827 18.501004 -10.108128 7.244684 -2.846176 0.000000 -0.000000 0.000000 0.492593 8.311328 -26.030415 2.010702 2.352306 24.684026 9.911816 8.797303 -1.732886 0.000000 -0.000000 0.000000 -10.476792 -9.124627 19.223623 -0.371195 -21.761821 5.320077 -0.187812 -9.061634 -11.075729 -12.559984 50.340691 4.628920 -0.243411 29.172943 3.961855 19.156777 -59.045964 -28.259187 -24.368218 -73.618876 -4.996352 10.675786 -21.675430 -0.962442 10.769280 -22.253286 -0.955844 -2.102937 20.547297 -10.148311 44.134741 31.479938 3.645586 -97.282234 38.758887 -66.418461 -52.167606 5.268825 -10.537796 
0.103229 -0.072826 0.979130 150.598713 4.218905 93.858396 18.822267 15.466895 -4.194440 0.625989 20.479837 17.226678 -7.851904 7.883534 -5.574737 0.000000 -0.000000 0.000000 -1.746828 6.870480 -27.105054 1.432528 -0.406604 24.438349 10.263074 6.613132 -1.819010 0.000000 -0.000000 0.000000 -9.023698 -8.801522 20.062584 0.886734 -21.953422 5.693844 0.272246 -9.170460 -10.103746 -11.382767 48.250273 5.690784 -0.371692 27.637677 4.641219 15.627235 -59.608027 -24.262715 -29.648490 -72.627469 -0.529869 10.553047 -20.018443 -0.492382 11.069788 -21.463417 -1.599628 -0.055570 21.150162 -9.015744 46.668320 31.233819 5.694488 -94.238529 38.945588 -65.577446 -51.671883 2.467865 -12.139083 
0.080970 -0.077188 0.977218 157.823578 3.564471 94.564130 16.499942 14.404209 -7.940057 0.015926 20.051248 16.418176 -6.310910 6.588517 -7.065312 0.000000 -0.000000 0.000000 -4.079138 4.815055 -27.037446 0.087497 -3.385916 24.151807 10.398423 4.382550 -2.230812 0.000000 -0.000000 0.000000 -7.265809 -7.966239 20.786911 2.312281 -22.288381 6.512000 1.048954 -9.435108 -9.252357 -10.011015 45.183186 6.954548 -0.178682 25.513048 5.173027 11.597691 -60.229003 -20.370338 -36.645681 -71.078868 4.823497 9.894102 -18.021908 0.447971 10.854846 -20.287825 -0.077024 1.761786 21.585170 -8.262454 50.076981 29.929961 7.870824 -90.979867 39.566137 -64.965591 -51.390280 0.347094 -13.254279 
0.058099 -0.081413 0.976100 166.205171 2.557613 94.722904 13.950637 12.572943 -11.584608 -0.469665 16.649795 16.646798 -5.411358 4.054867 -7.347960 0.000000 -0.000000 0.000000 -6.567914 2.246698 -25.656910 -1.594858 -6.333580 23.853172 10.312213 1.839789 -2.515182 0.000000 -0.000000 0.000000 -4.902073 -7.016385 20.898121 3.585086 -22.493690 7.865949 1.741112 -9.706175 -8.633913 -8.594585 39.957265 8.419201 0.116070 23.056281 5.391737 6.202644 -60.565099 -15.628508 -45.272694 -68.507298 11.303976 9.497883 -16.066118 2.453177 10.786656 -18.679860 1.326646 4.019738 22.142430 -6.829540 53.421255 27.531496 9.430082 -87.105116 40.656697 -64.231595 -51.717944 -2.124081 -16.084776 
